<?xml version="1.0" encoding="utf-8"?>
<?xml-stylesheet type="text/xsl" href="rss1.xsl"?>
<rss version="2.0" xmlns:atom="http://www.w3.org/2005/Atom" xmlns:content="http://purl.org/rss/1.0/modules/content/" xmlns:dc="http://purl.org/dc/elements/1.1/" xmlns:media="http://search.yahoo.com/mrss/">
<channel>
 <title>Getty</title>
 <link>http://www.gettyimg.com/</link>
 <atom:link href="http://www.gettyimg.com/" rel="self" type="application/rss+xml" />

 
                <item>
                <title><![CDATA[【Interviews / TV shows / Others】FEED - Britain's Got Talent: Series 16 Episode 12: Live Show 4 (1/6/23) (1080i) (Feed) [MAVERICK]]]></title>
                <link><![CDATA[https://sharemania.us/threads/britains-got-talent-series-16-episode-12-live-show-4-1-6-23-1080i-feed-maverick.221963/]]></link>
                <description><![CDATA[<article>
<blockquote class="messageText SelectQuoteContainer ugc baseHtml">
<div style="text-align: center"><b>Britain's Got Talent: Series 16 Episode 12: Live Show 4 (1/6/23) (1080i) (Feed) [MAVERICK]</b><br>
<img src="https://i.imgur.com/vjyGtQf.jpeg" class="bbCodeImage LbImage" alt="[​IMG]" data-url="https://i.imgur.com/vjyGtQf.jpeg" style="">​</div><b>Satellite Details:</b><br>
<div class="bbCodeBlock bbCodeVfcHH HiddenContent">
<div class="attribution type">Hidden Content:</div>
<blockquote>You must either reply or click 'Like' to see the hidden information contained here.</blockquote>
</div><img src="https://i.postimg.cc/nrt7zfPV/Britain-s-Got-Talent-Series-16-Episode-12-Live-Show-4-1-6-23-1080i-Feed-MAVERICK.jpg" class="bbCodeImage LbImage" alt="[​IMG]" data-url="https://i.postimg.cc/nrt7zfPV/Britain-s-Got-Talent-Series-16-Episode-12-Live-Show-4-1-6-23-1080i-Feed-MAVERICK.jpg" style=""><b>Airdate: 1/6/23</b><br>
<div class="ToggleTriggerAnchor bbCodeSpoilerContainer">
<button type="button" class="button bbCodeSpoilerButton ToggleTrigger Tooltip JsOnly" data-target="> .SpoilerTarget"><span>Spoiler: <span class="SpoilerTitle">Media Info:</span></span></button>
<div class="SpoilerTarget bbCodeSpoilerText">General<br>
Complete name : C:\Users\Maverick\Desktop\Britain's Got Talent: Series 16 Episode 12: Live Show 4 (1/6/23) (1080i) (Feed) [MAVERICK].mkv<br>
Format : Matroska<br>
Format version : Version 4<br>
File size : 52.6 GiB<br>
Duration : 3 h 45 min<br>
Overall bit rate mode : Variable<br>
Overall bit rate : 33.4 Mb/s<br>
Movie name : Britain's Got Talent: Series 16 Episode 12: Live Show 4 (1/6/23) (1080i) (Feed) [MAVERICK]<br>
Encoded date : UTC 2023-06-02 14:38:15<br>
Writing application : mkvmerge v74.0.0 ('You Oughta Know') 64-bit<br>
Writing library : libebml v1.4.4 + libmatroska v1.7.1<br>
<br>
Video<br>
ID : 1<br>
Format : MPEG Video<br>
Format version : Version 2<br>
Format profile : Main@High<br>
Format settings : BVOP<br>
Format settings, BVOP : Yes<br>
Format settings, Matrix : Default<br>
Format settings, GOP : M=4, N=32<br>
Format settings, picture struc : Frame<br>
Codec ID : V_MPEG2<br>
Codec ID/Info : MPEG 1 or 2 Video<br>
Duration : 3 h 45 min<br>
Bit rate mode : Variable<br>
Bit rate : 32.9 Mb/s<br>
Maximum bit rate : 34.5 Mb/s<br>
Width : 1920 pixels<br>
Height : 1080 pixels<br>
Display aspect ratio : 16:9<br>
Active Format Description : Full frame 16:9 image<br>
Frame rate mode : Variable<br>
Frame rate : 24.411 FPS<br>
Original frame rate : 25.000 FPS<br>
Color space : YUV<br>
Chroma subsampling : 4:2:0<br>
Bit depth : 8 bits<br>
Scan type : Interlaced<br>
Scan order : Top Field First<br>
Compression mode : Lossy<br>
Bits/(Pixel*Frame) : 0.650<br>
Stream size : 51.8 GiB (98%)<br>
Title : Britain's Got Talent: Series 16 Episode 12: Live Show 4 (1/6/23) (1080i) (Feed) [MAVERICK]<br>
Language : English<br>
Default : Yes<br>
Forced : No<br>
<br>
Audio #1<br>
ID : 2<br>
Format : MPEG Audio<br>
Format version : Version 1<br>
Format profile : Layer 2<br>
Codec ID : A_MPEG/L2<br>
Codec ID/Hint : MP2<br>
Duration : 3 h 45 min<br>
Bit rate mode : Constant<br>
Bit rate : 256 kb/s<br>
Channel(s) : 2 channels<br>
Sampling rate : 48.0 kHz<br>
Frame rate : 40.680 FPS (1180 SPF)<br>
Compression mode : Lossy<br>
Delay relative to video : -250 ms<br>
Stream size : 403 MiB (1%)<br>
Title : Stereo<br>
Language : English<br>
Default : Yes<br>
Forced : No<br>
<br>
Audio #2<br>
ID : 3<br>
Format : MPEG Audio<br>
Format version : Version 1<br>
Format profile : Layer 2<br>
Codec ID : A_MPEG/L2<br>
Codec ID/Hint : MP2<br>
Duration : 3 h 45 min<br>
Bit rate mode : Constant<br>
Bit rate : 256 kb/s<br>
Channel(s) : 2 channels<br>
Sampling rate : 48.0 kHz<br>
Frame rate : 40.681 FPS (1180 SPF)<br>
Compression mode : Lossy<br>
Delay relative to video : 150 ms<br>
Stream size : 403 MiB (1%)<br>
Title : Stereo<br>
Language : English<br>
Default : Yes<br>
Forced : No</div>
</div>
<div class="ToggleTriggerAnchor bbCodeSpoilerContainer">
<button type="button" class="button bbCodeSpoilerButton ToggleTrigger Tooltip JsOnly" data-target="> .SpoilerTarget"><span>Spoiler: <span class="SpoilerTitle">Download:</span></span></button>
<div class="SpoilerTarget bbCodeSpoilerText">
<div class="bbCodeBlock bbCodeVfcHH HiddenContent">
<div class="attribution type">Hidden Content:</div>
<blockquote>You must either reply or click 'Like' to see the hidden information contained here.</blockquote>
</div></div>
</div><div style="text-align: center"><br>
Started Recording this Episode at 6.17pm due to The Feed Starting Early and Thing's Happening<br>
<br>
<b>DOWNLOAD LINK NOW LIVE</b><br>
<br>
PLEASE NOTE: THE END OF THIS EPISODE DIDNT RECORD FOR SOME REASON DUE TO AN ISSUE WITH THE FEED BUT TAKE IT OR LEAVE IT, IT IS WHAT IT IS AFTERALL<br>
<b>Please Note: This is an Unedited 1080i Feed, Enjoy <img src="styles/default/xenforo/smilies/big_smile-48.png" class="mceSmilie" alt=":)" title="Smile    :)"></b><br>
<br>
<b>Please Note This File Has Been uploaded to Gofile, because its free fast upload and download speeds Grab it while you can once it gets deleted i wont Reupload it as i delete my recordings from my harddrive's once they are uploaded!<br>
<br>
Please Credit Me Maverick if you are going to upload my files elsewhere!</b><br>
<br>
<b>REMEMBER I CAPPED AND UPLOADED THIS FIRST BEFORE ANYONE ELSE AND I WANT CREDIT FOR THIS CAP AND UPLOAD!!<br>
<br>
New Content will only Be Uploaded from this Account <a href="https://sharemania.us/members/176676/" class="username" data-user="176676, @Maverick">@Maverick</a></b>​</div>
<div class="messageTextEndMarker">&nbsp;</div>
</blockquote>
</article>]]></description>
                <author><![CDATA[Maverick]]></author>
                </item>

                
                <item>
                <title><![CDATA[【Interviews / TV shows / Others】FEED - Britain's Got Talent: Series 16 Episode 11: Live Show 3 (31/5/23) (1080i) (Feed) [MAVERICK]]]></title>
                <link><![CDATA[https://sharemania.us/threads/britains-got-talent-series-16-episode-11-live-show-3-31-5-23-1080i-feed-maverick.221964/]]></link>
                <description><![CDATA[<article>
<blockquote class="messageText SelectQuoteContainer ugc baseHtml">
<div style="text-align: center"><b>Britain's Got Talent: Series 16 Episode 11: Live Show 3 (31/5/23) (1080i) (Feed) [MAVERICK]</b><br>
<img src="https://i.imgur.com/vjyGtQf.jpeg" class="bbCodeImage LbImage" alt="[​IMG]" data-url="https://i.imgur.com/vjyGtQf.jpeg" style="">​</div><b>Satellite Details:</b><br>
<div class="bbCodeBlock bbCodeVfcHH HiddenContent">
<div class="attribution type">Hidden Content:</div>
<blockquote>You must either reply or click 'Like' to see the hidden information contained here.</blockquote>
</div><img src="https://i.postimg.cc/JzwyrPdd/Britain-s-Got-Talent-Series-16-Episode-11-Live-Show-3-31-5-23-1080i-Feed-MAVERICK.jpg" class="bbCodeImage LbImage" alt="[​IMG]" data-url="https://i.postimg.cc/JzwyrPdd/Britain-s-Got-Talent-Series-16-Episode-11-Live-Show-3-31-5-23-1080i-Feed-MAVERICK.jpg" style=""><b>Airdate: 31/5/23</b><br>
<div class="ToggleTriggerAnchor bbCodeSpoilerContainer">
<button type="button" class="button bbCodeSpoilerButton ToggleTrigger Tooltip JsOnly" data-target="> .SpoilerTarget"><span>Spoiler: <span class="SpoilerTitle">Media Info:</span></span></button>
<div class="SpoilerTarget bbCodeSpoilerText">General<br>
Complete name : C:\Users\Maverick\Desktop\Britain's Got Talent: Series 16 Episode 11: Live Show 3 (31/5/23) (1080i) (Feed) [MAVERICK].mkv<br>
Format : Matroska<br>
Format version : Version 4<br>
File size : 50.6 GiB<br>
Duration : 3 h 31 min<br>
Overall bit rate mode : Variable<br>
Overall bit rate : 34.2 Mb/s<br>
Movie name : Britain's Got Talent: Series 16 Episode 11: Live Show 3 (31/5/23) (1080i) (Feed) [MAVERICK]<br>
Encoded date : UTC 2023-06-01 09:39:24<br>
Writing application : mkvmerge v74.0.0 ('You Oughta Know') 64-bit<br>
Writing library : libebml v1.4.4 + libmatroska v1.7.1<br>
<br>
Video<br>
ID : 1<br>
Format : MPEG Video<br>
Format version : Version 2<br>
Format profile : Main@High<br>
Format settings : CustomMatrix / BVOP<br>
Format settings, BVOP : Yes<br>
Format settings, Matrix : Custom<br>
Format settings, GOP : M=4, N=32<br>
Format settings, picture struc : Frame<br>
Codec ID : V_MPEG2<br>
Codec ID/Info : MPEG 1 or 2 Video<br>
Duration : 3 h 31 min<br>
Bit rate mode : Variable<br>
Bit rate : 33.7 Mb/s<br>
Maximum bit rate : 34.5 Mb/s<br>
Width : 1920 pixels<br>
Height : 1080 pixels<br>
Display aspect ratio : 16:9<br>
Active Format Description : Full frame 16:9 image<br>
Frame rate mode : Constant<br>
Frame rate : 25.000 FPS<br>
Color space : YUV<br>
Chroma subsampling : 4:2:0<br>
Bit depth : 8 bits<br>
Scan type : Interlaced<br>
Scan order : Top Field First<br>
Compression mode : Lossy<br>
Bits/(Pixel*Frame) : 0.650<br>
Stream size : 49.8 GiB (98%)<br>
Title : Britain's Got Talent: Series 16 Episode 11: Live Show 3 (31/5/23) (1080i) (Feed) [MAVERICK]<br>
Language : English<br>
Default : Yes<br>
Forced : No<br>
<br>
Audio #1<br>
ID : 2<br>
Format : MPEG Audio<br>
Format version : Version 1<br>
Format profile : Layer 2<br>
Codec ID : A_MPEG/L2<br>
Codec ID/Hint : MP2<br>
Duration : 3 h 31 min<br>
Bit rate mode : Constant<br>
Bit rate : 256 kb/s<br>
Channel(s) : 2 channels<br>
Sampling rate : 48.0 kHz<br>
Frame rate : 41.667 FPS (1152 SPF)<br>
Compression mode : Lossy<br>
Delay relative to video : -130 ms<br>
Stream size : 388 MiB (1%)<br>
Title : Stereo<br>
Language : English<br>
Default : Yes<br>
Forced : No<br>
<br>
Audio #2<br>
ID : 3<br>
Format : MPEG Audio<br>
Format version : Version 1<br>
Format profile : Layer 2<br>
Codec ID : A_MPEG/L2<br>
Codec ID/Hint : MP2<br>
Duration : 3 h 31 min<br>
Bit rate mode : Constant<br>
Bit rate : 256 kb/s<br>
Channel(s) : 2 channels<br>
Sampling rate : 48.0 kHz<br>
Frame rate : 41.667 FPS (1152 SPF)<br>
Compression mode : Lossy<br>
Delay relative to video : 150 ms<br>
Stream size : 388 MiB (1%)<br>
Title : Stereo<br>
Language : English<br>
Default : Yes<br>
Forced : No</div>
</div>
<div class="ToggleTriggerAnchor bbCodeSpoilerContainer">
<button type="button" class="button bbCodeSpoilerButton ToggleTrigger Tooltip JsOnly" data-target="> .SpoilerTarget"><span>Spoiler: <span class="SpoilerTitle">Download:</span></span></button>
<div class="SpoilerTarget bbCodeSpoilerText">
<div class="bbCodeBlock bbCodeVfcHH HiddenContent">
<div class="attribution type">Hidden Content:</div>
<blockquote>You must either reply or click 'Like' to see the hidden information contained here.</blockquote>
</div></div>
</div><br>
<div style="text-align: center">This Episode is 3h 31Mins due to other stuff happening before it went live​</div><br>
<div style="text-align: center"><b>DOWNLOAD LINK NOW LIVE</b><br>
<br>
<b>Please Note: This is an Unedited 1080i Feed, Enjoy <img src="styles/default/xenforo/smilies/big_smile-48.png" class="mceSmilie" alt=":)" title="Smile    :)"></b><br>
<br>
<b>Please Note This File Has Been uploaded to Gofile, because its free fast upload and download speeds Grab it while you can once it gets deleted i wont Reupload it as i delete my recordings from my harddrive's once they are uploaded!<br>
<br>
Please Credit Me Maverick if you are going to upload my files elsewhere!</b><br>
<br>
<b>REMEMBER I CAPPED AND UPLOADED THIS FIRST BEFORE ANYONE ELSE AND I WANT CREDIT FOR THIS CAP AND UPLOAD!!<br>
<br>
New Content will only Be Uploaded from this Account <a href="https://sharemania.us/members/176676/" class="username" data-user="176676, @Maverick">@Maverick</a></b>​</div>
<div class="messageTextEndMarker">&nbsp;</div>
</blockquote>
</article>]]></description>
                <author><![CDATA[Maverick]]></author>
                </item>

                </channel></rss>